<?xml version="1.0" encoding="UTF-8"?>
<svg version="1.1" xmlns="http://www.w3.org/2000/svg" width="48" height="48">
<path d="M0 0 C6.06754707 0.38844732 9.42143391 2.20559688 14.1875 5.875 C14.79013672 6.32230469 15.39277344 6.76960937 16.01367188 7.23046875 C17.17161168 8.09225052 18.32413537 8.96137402 19.47021484 9.83886719 C20.76568436 10.82215046 22.09269947 11.76365793 23.42578125 12.6953125 C23.94527344 13.12585937 24.46476562 13.55640625 25 14 C25 14.66 25 15.32 25 16 C25.54140625 16.2475 26.0828125 16.495 26.640625 16.75 C29.5282849 18.27988604 32.09776018 20.09150997 34.75 22 C35.73484375 22.70125 36.7196875 23.4025 37.734375 24.125 C38.48203125 24.74375 39.2296875 25.3625 40 26 C40 26.66 40 27.32 40 28 C40.66 28 41.32 28 42 28 C42.10251672 33.12583611 42.03590199 37.94997778 41 43 C36.56247066 43.41626381 34.74410536 42.44494135 31.3125 39.6875 C25.44014876 35.17837315 19.23259487 31.4150485 12.84301758 27.68237305 C12.08657959 27.23289307 11.3301416 26.78341309 10.55078125 26.3203125 C9.86669189 25.92086426 9.18260254 25.52141602 8.4777832 25.10986328 C7.99011475 24.7436084 7.50244629 24.37735352 7 24 C7 23.34 7 22.68 7 22 C6.443125 21.896875 5.88625 21.79375 5.3125 21.6875 C1.02513507 20.41287799 -1.51792535 18.72311198 -4 15 C-4.75287187 10.40397987 -4.63754167 6.36575355 -2 2.4375 C-1.34 1.633125 -0.68 0.82875 0 0 Z " fill="#958E80" transform="translate(5,2)"/>
<path d="M0 0 C6.06754707 0.38844732 9.42143391 2.20559688 14.1875 5.875 C14.79013672 6.32230469 15.39277344 6.76960937 16.01367188 7.23046875 C17.17161168 8.09225052 18.32413537 8.96137402 19.47021484 9.83886719 C20.76568436 10.82215046 22.09269947 11.76365793 23.42578125 12.6953125 C23.94527344 13.12585937 24.46476562 13.55640625 25 14 C25 14.66 25 15.32 25 16 C25.82757812 16.38865234 25.82757812 16.38865234 26.671875 16.78515625 C29.33179768 18.17313604 31.76879403 19.75071524 34.25 21.4375 C35.14203125 22.03433594 36.0340625 22.63117187 36.953125 23.24609375 C37.62859375 23.82488281 38.3040625 24.40367188 39 25 C39 25.99 39 26.98 39 28 C35.12867972 27.42647107 32.91827204 25.51295648 30 23 C30 23.66 30 24.32 30 25 C29.34 25 28.68 25 28 25 C27.505 22.525 27.505 22.525 27 20 C25.68 19.67 24.36 19.34 23 19 C23 18.34 23 17.68 23 17 C22.4225 17.2475 21.845 17.495 21.25 17.75 C20.13625 17.87375 20.13625 17.87375 19 18 C16.75 16.0625 16.75 16.0625 15 14 C15.66 15.65 16.32 17.3 17 19 C13 19 13 19 11.625 17.75 C11.08875 17.1725 10.5525 16.595 10 16 C8.01811655 14.63988391 6.02048131 13.30208796 4 12 C4.76412087 13.12956998 5.53659803 14.25348978 6.3125 15.375 C6.74175781 16.00148438 7.17101563 16.62796875 7.61328125 17.2734375 C9.06920339 19.26378845 9.06920339 19.26378845 12 21 C12 21.66 12 22.32 12 23 C12.66 23.33 13.32 23.66 14 24 C13.01 24.66 12.02 25.32 11 26 C9.68 25.34 8.36 24.68 7 24 C7 23.34 7 22.68 7 22 C6.443125 21.896875 5.88625 21.79375 5.3125 21.6875 C1.02513507 20.41287799 -1.51792535 18.72311198 -4 15 C-4.75287187 10.40397987 -4.63754167 6.36575355 -2 2.4375 C-1.34 1.633125 -0.68 0.82875 0 0 Z " fill="#877D6C" transform="translate(5,2)"/>
<path d="M0 0 C1.79398267 0.95399078 3.58511655 1.91334026 5.375 2.875 C6.37273438 3.40867187 7.37046875 3.94234375 8.3984375 4.4921875 C11 6 11 6 13 8 C15.57061311 8.64767793 15.57061311 8.64767793 18 9 C17.34 7.68 16.68 6.36 16 5 C16.99 5 17.98 5 19 5 C19.33 4.01 19.66 3.02 20 2 C20.66 3.98 21.32 5.96 22 8 C22.33 7.34 22.66 6.68 23 6 C23.66 6 24.32 6 25 6 C27.67927341 10.01891012 27.15601248 12.24161923 27 17 C22.40683572 17.4691942 20.44871821 16.2484694 16.875 13.4375 C12.09048987 9.77263034 7.18228643 6.55018624 2.01953125 3.4453125 C1.35308594 2.96835937 0.68664062 2.49140625 0 2 C0 1.34 0 0.68 0 0 Z " fill="#8B8474" transform="translate(19,28)"/>
<path d="M0 0 C3.58273331 1.65356922 6.80973467 3.67980703 10 6 C10 6.66 10 7.32 10 8 C11.65 8 13.3 8 15 8 C15 8.66 15 9.32 15 10 C15.928125 10.28875 16.85625 10.5775 17.8125 10.875 C21 12 21 12 24 14 C24 14.66 24 15.32 24 16 C22.02 16 20.04 16 18 16 C17.67 16.99 17.34 17.98 17 19 C16.05125 18.505 15.1025 18.01 14.125 17.5 C11.27721834 15.85575631 11.27721834 15.85575631 9 16 C9 14.68 9 13.36 9 12 C7.3563186 10.31066078 5.6857124 8.64740076 4 7 C2.51607341 4.72432983 1.27340514 2.40532082 0 0 Z " fill="#87806E" transform="translate(8,13)"/>
<path d="M0 0 C2.375 0.3125 2.375 0.3125 5 1 C5.66 1.99 6.32 2.98 7 4 C6.195625 4.268125 5.39125 4.53625 4.5625 4.8125 C3.716875 5.204375 2.87125 5.59625 2 6 C1.67 6.99 1.34 7.98 1 9 C0.34 9 -0.32 9 -1 9 C0.68807908 13.23084903 0.68807908 13.23084903 4 16 C3.67 15.01 3.34 14.02 3 13 C3.99 13.33 4.98 13.66 6 14 C6 14.66 6 15.32 6 16 C6.598125 16.12375 7.19625 16.2475 7.8125 16.375 C10 17 10 17 13 19 C13 19.66 13 20.32 13 21 C13.66 21.33 14.32 21.66 15 22 C14.01 22.66 13.02 23.32 12 24 C10.68 23.34 9.36 22.68 8 22 C8 21.34 8 20.68 8 20 C7.443125 19.896875 6.88625 19.79375 6.3125 19.6875 C2.02513507 18.41287799 -0.51792535 16.72311198 -3 13 C-3.5968343 8.79115555 -3.66857733 5.14215294 -1.5 1.4375 C-0.7575 0.7259375 -0.7575 0.7259375 0 0 Z " fill="#665F4E" transform="translate(4,4)"/>
<path d="M0 0 C2.5 1.375 2.5 1.375 5 3 C5 3.66 5 4.32 5 5 C5.82757812 5.38865234 5.82757812 5.38865234 6.671875 5.78515625 C9.33179768 7.17313604 11.76879403 8.75071524 14.25 10.4375 C15.14203125 11.03433594 16.0340625 11.63117187 16.953125 12.24609375 C17.62859375 12.82488281 18.3040625 13.40367188 19 14 C19 14.99 19 15.98 19 17 C15.12867972 16.42647107 12.91827204 14.51295648 10 12 C10 12.66 10 13.32 10 14 C9.34 14 8.68 14 8 14 C7.67 12.35 7.34 10.7 7 9 C5.68 8.67 4.36 8.34 3 8 C3 7.34 3 6.68 3 6 C1.68 6.33 0.36 6.66 -1 7 C-1.99 5.35 -2.98 3.7 -4 2 C-2.68 2.33 -1.36 2.66 0 3 C0 2.01 0 1.02 0 0 Z " fill="#878175" transform="translate(25,13)"/>
<path d="M0 0 C5.90834259 0.88625139 10.69298409 5.31292253 15.125 9.0625 C15.455 9.7225 15.785 10.3825 16.125 11.0625 C14.805 10.7325 13.485 10.4025 12.125 10.0625 C11.795 10.7225 11.465 11.3825 11.125 12.0625 C6.64959016 13.32479508 6.64959016 13.32479508 4.125 12.0625 C4.455 10.4125 4.785 8.7625 5.125 7.0625 C4.196875 6.44375 3.26875 5.825 2.3125 5.1875 C0.25 3.8125 -1.8125 2.4375 -3.875 1.0625 C-2.875 0.0625 -2.875 0.0625 0 0 Z " fill="#8A8375" transform="translate(7.875,1.9375)"/>
<path d="M0 0 C0.99 0.33 1.98 0.66 3 1 C3.74513723 3.09993221 4 4.77431099 4 7 C4.63903117 8.67745682 5.30341637 10.34561387 6 12 C5.34 12 4.68 12 4 12 C3.34 11.34 2.68 10.68 2 10 C2 10.66 2 11.32 2 12 C-1 11 -1 11 -2.6875 7.9375 C-3.120625 6.968125 -3.55375 5.99875 -4 5 C-3 4 -2 3 -1 2 C-0.67 1.34 -0.34 0.68 0 0 Z " fill="#756D5D" transform="translate(6,8)"/>
<path d="M0 0 C8.92672057 4.5583254 18.06210217 9.62848356 25 17 C22.07738763 16.40035643 19.99923003 15.53329883 17.5390625 13.85546875 C16.90226562 13.42556641 16.26546875 12.99566406 15.609375 12.55273438 C14.95453125 12.10220703 14.2996875 11.65167969 13.625 11.1875 C12.97789063 10.74857422 12.33078125 10.30964844 11.6640625 9.85742188 C10.38565689 8.99011646 9.10987179 8.11893413 7.83691406 7.24365234 C6.63262851 6.42831069 5.41594952 5.6309191 4.18652344 4.85400391 C2.75965913 3.95037904 1.37476893 2.98106576 0 2 C0 1.34 0 0.68 0 0 Z " fill="#69614A" transform="translate(19,28)"/>
<path d="M0 0 C3.58786447 1.65593745 6.83783588 3.62837691 10 6 C10 6.99 10 7.98 10 9 C11.98 9.66 13.96 10.32 16 11 C13 12 13 12 9.5 10.75 C4.0526767 8.02633835 2.57022139 5.50761726 0 0 Z " fill="#938E7E" transform="translate(8,13)"/>
<path d="M0 0 C0.33 0.66 0.66 1.32 1 2 C1.66 2 2.32 2 3 2 C3 4.97 3 7.94 3 11 C2.01 10.01 1.02 9.02 0 8 C0 7.34 0 6.68 0 6 C-0.66 6 -1.32 6 -2 6 C-2.33 6.99 -2.66 7.98 -3 9 C-3.66 8.01 -4.32 7.02 -5 6 C-4.34 5.01 -3.68 4.02 -3 3 C-2.34 3.33 -1.68 3.66 -1 4 C-0.67 2.68 -0.34 1.36 0 0 Z " fill="#938C7F" transform="translate(44,28)"/>
<path d="M0 0 C4.49602235 0.33932244 7.73831047 0.73831047 11 4 C11 4.66 11 5.32 11 6 C9.56068883 5.54738642 8.12361001 5.08767021 6.6875 4.625 C5.88699219 4.36976563 5.08648437 4.11453125 4.26171875 3.8515625 C2 3 2 3 -1 1 C-0.67 0.67 -0.34 0.34 0 0 Z " fill="#807D74" transform="translate(5,2)"/>
<path d="M0 0 C0.66 0 1.32 0 2 0 C4 3 4 3 3.625 6.1875 C3.41875 7.115625 3.2125 8.04375 3 9 C0.9375 6.75 0.9375 6.75 -1 4 C-0.75 1.6875 -0.75 1.6875 0 0 Z " fill="#7C7666" transform="translate(42,34)"/>
<path d="M0 0 C2.475 0.495 2.475 0.495 5 1 C4.34 2.65 3.68 4.3 3 6 C3.66 6.33 4.32 6.66 5 7 C3.68 6.67 2.36 6.34 1 6 C0.67 4.02 0.34 2.04 0 0 Z " fill="#82796A" transform="translate(9,8)"/>
<path d="M0 0 C2.84383123 1.2748209 5.13754018 2.45137078 7 5 C6.6875 7.1875 6.6875 7.1875 6 9 C3.03134491 6.45543849 1.6380249 3.51005335 0 0 Z " fill="#8D8673" transform="translate(8,13)"/>
<path d="M0 0 C2.375 0.3125 2.375 0.3125 5 1 C5.66 1.99 6.32 2.98 7 4 C5.68 4.33 4.36 4.66 3 5 C2.67 4.01 2.34 3.02 2 2 C0.02 2.99 0.02 2.99 -2 4 C-1.34 2.68 -0.68 1.36 0 0 Z " fill="#686154" transform="translate(4,4)"/>
<path d="M0 0 C4.75 1.875 4.75 1.875 7 3 C7.33 2.34 7.66 1.68 8 1 C8.66 1.99 9.32 2.98 10 4 C9.34 4 8.68 4 8 4 C7.67 4.66 7.34 5.32 7 6 C5.83054208 5.19152271 4.66449539 4.37810888 3.5 3.5625 C2.8503125 3.11003906 2.200625 2.65757812 1.53125 2.19140625 C1.0259375 1.79824219 0.520625 1.40507813 0 1 C0 0.67 0 0.34 0 0 Z " fill="#8F8C81" transform="translate(9,5)"/>
<path d="M0 0 C0.66 0.33 1.32 0.66 2 1 C1.67 3.64 1.34 6.28 1 9 C-1.7839183 7.60804085 -1.97898997 5.84424221 -3 3 C-2.01 3 -1.02 3 0 3 C0 2.01 0 1.02 0 0 Z " fill="#827B6F" transform="translate(38,30)"/>
<path d="M0 0 C4.75 0.875 4.75 0.875 7 2 C7 2.66 7 3.32 7 4 C6.236875 3.835 5.47375 3.67 4.6875 3.5 C1.96403764 2.90854604 1.96403764 2.90854604 -1 3 C-0.67 2.01 -0.34 1.02 0 0 Z " fill="#9A9488" transform="translate(36,28)"/>
<path d="M0 0 C0 2.97 0 5.94 0 9 C-3 6 -3 6 -3.1875 3.3125 C-3.125625 2.549375 -3.06375 1.78625 -3 1 C-1 0 -1 0 0 0 Z " fill="#888475" transform="translate(47,30)"/>
<path d="M0 0 C2.97 1.65 5.94 3.3 9 5 C5 6 5 6 1.75 4.0625 C0.8425 3.381875 -0.065 2.70125 -1 2 C-0.67 1.34 -0.34 0.68 0 0 Z " fill="#5D553F" transform="translate(4,18)"/>
<path d="M0 0 C2.97 0.495 2.97 0.495 6 1 C6 2.32 6 3.64 6 5 C4.35 5 2.7 5 1 5 C0.67 3.35 0.34 1.7 0 0 Z " fill="#817568" transform="translate(19,11)"/>
<path d="M0 0 C2.4375 0.8125 2.4375 0.8125 5 2 C5.33 2.99 5.66 3.98 6 5 C4.68 5 3.36 5 2 5 C1.34 3.35 0.68 1.7 0 0 Z " fill="#665B4F" transform="translate(16,16)"/>
</svg>
